<?xml version="1.0" standalone="no"?><!DOCTYPE svg PUBLIC "-//W3C//DTD SVG 1.1//EN" "http://www.w3.org/Graphics/SVG/1.1/DTD/svg11.dtd"><svg t="1726884333181" class="icon" viewBox="0 0 1024 1024" version="1.1" xmlns="http://www.w3.org/2000/svg" p-id="5989" width="48" height="48" xmlns:xlink="http://www.w3.org/1999/xlink"><path d="M798.62 872.32a72.93 72.93 0 0 1-51.93-21.45l-67.55-67.54a14.35 14.35 0 0 0-24.14 7.09l-2.69 12.37a20 20 0 1 1-39.08-8.49l2.69-12.38a54.34 54.34 0 0 1 91.5-26.92L775 822.59a33.44 33.44 0 0 0 47.29-47.29l-50.51-50.52-43.67-44.06a20 20 0 0 1-2.14-25.62 294.52 294.52 0 0 0-32.55-377.79c-55.48-55.48-129.41-86-208.2-86H485c-78.88 0.06-152.85 30.72-208.3 86.33-55.7 55.82-86.12 130.23-85.7 209.5s31.71 153.4 88 208.64a293.74 293.74 0 0 0 236.1 82.65 4.79 4.79 0 0 0 3.06-8L348.57 585.74a49.85 49.85 0 0 1 43.06-83.17l117.92 15.12a9.85 9.85 0 0 0 9.38-15.33l-30.1-44a49.86 49.86 0 0 1 31.12-77A20.07 20.07 0 0 1 525 381l96 5a20 20 0 0 1-2 40l-92.79-4.86a9.88 9.88 0 0 0-4.31 14.66l30.1 44a49.85 49.85 0 0 1-47.49 77.58l-117.97-15.14a9.85 9.85 0 0 0-8.54 16.44l169.68 184.68a44.8 44.8 0 0 1-28.47 74.87 334.36 334.36 0 1 1-34.28-666.94h0.26A334.35 334.35 0 0 1 768 664.17l32.1 32.39L850.54 747a73.38 73.38 0 0 1-51.92 125.31z" p-id="5990" fill="#e6e6e6"></path></svg>